<svg xmlns="http://www.w3.org/2000/svg" viewBox="0 0 24 24" fill="white">
  <path d="M12 0C5.37 0 0 5.37 0 12c0 5.3 3.438 9.8 8.205 11.385.6.113.82-.26.82-.577v-2.234c-3.338.725-4.033-1.416-4.033-1.416-.546-1.385-1.333-1.754-1.333-1.754-1.09-.745.082-.729.082-.729 1.205.085 1.84 1.237 1.84 1.237 1.07 1.834 2.81 1.304 3.495.997.107-.775.42-1.305.763-1.605-2.665-.3-5.467-1.334-5.467-5.933 0-1.312.47-2.383 1.236-3.222-.123-.303-.536-1.52.117-3.176 0 0 1.008-.322 3.3 1.23a11.5 11.5 0 0 1 6 0c2.29-1.553 3.295-1.23 3.295-1.23.655 1.656.243 2.873.12 3.176.77.839 1.234 1.91 1.234 3.222 0 4.61-2.807 5.63-5.48 5.922.43.372.824 1.103.824 2.222v3.293c0 .32.218.694.825.576C20.565 21.796 24 17.296 24 12c0-6.63-5.373-12-12-12z"></path>
</svg>
